<mxfile host="Electron" agent="Mozilla/5.0 (Windows NT 10.0; Win64; x64) AppleWebKit/537.36 (KHTML, like Gecko) draw.io/24.7.17 Chrome/128.0.6613.36 Electron/32.0.1 Safari/537.36" version="24.7.17">
  <diagram name="Page-1" id="vXcOGV97D-zfkoVogZVf">
    <mxGraphModel dx="678" dy="425" grid="1" gridSize="10" guides="1" tooltips="1" connect="1" arrows="1" fold="1" page="1" pageScale="1" pageWidth="827" pageHeight="1169" math="0" shadow="0">
      <root>
        <mxCell id="0" />
        <mxCell id="1" parent="0" />
        <mxCell id="YkbTa9h2mNcd4hBGybYm-1" value="" style="image;points=[];aspect=fixed;html=1;align=center;shadow=0;dashed=0;image=img/lib/allied_telesis/computer_and_terminals/Server_Desktop.svg;" vertex="1" parent="1">
          <mxGeometry x="520" y="372" width="42.599999999999994" height="54" as="geometry" />
        </mxCell>
        <mxCell id="YkbTa9h2mNcd4hBGybYm-2" value="" style="sketch=0;outlineConnect=0;fontColor=#232F3E;gradientColor=none;fillColor=#BABABA;strokeColor=none;dashed=0;verticalLabelPosition=bottom;verticalAlign=top;align=center;html=1;fontSize=12;fontStyle=0;aspect=fixed;pointerEvents=1;shape=mxgraph.aws4.hardware_board;" vertex="1" parent="1">
          <mxGeometry x="230" y="360" width="78" height="78" as="geometry" />
        </mxCell>
        <mxCell id="YkbTa9h2mNcd4hBGybYm-3" value="" style="strokeWidth=2;html=1;shape=mxgraph.flowchart.database;whiteSpace=wrap;" vertex="1" parent="1">
          <mxGeometry x="511.3" y="525" width="60" height="60" as="geometry" />
        </mxCell>
        <mxCell id="YkbTa9h2mNcd4hBGybYm-4" value="" style="image;points=[];aspect=fixed;html=1;align=center;shadow=0;dashed=0;image=img/lib/allied_telesis/computer_and_terminals/Personal_Computer.svg;" vertex="1" parent="1">
          <mxGeometry x="110" y="525" width="45.6" height="61.800000000000004" as="geometry" />
        </mxCell>
        <mxCell id="YkbTa9h2mNcd4hBGybYm-5" value="" style="endArrow=classic;html=1;rounded=0;" edge="1" parent="1">
          <mxGeometry relative="1" as="geometry">
            <mxPoint x="80" y="398.71" as="sourcePoint" />
            <mxPoint x="200" y="399" as="targetPoint" />
          </mxGeometry>
        </mxCell>
        <mxCell id="YkbTa9h2mNcd4hBGybYm-6" value="Data" style="edgeLabel;resizable=0;html=1;;align=center;verticalAlign=middle;" connectable="0" vertex="1" parent="YkbTa9h2mNcd4hBGybYm-5">
          <mxGeometry relative="1" as="geometry" />
        </mxCell>
        <mxCell id="YkbTa9h2mNcd4hBGybYm-7" value="" style="endArrow=classic;html=1;rounded=0;" edge="1" parent="1">
          <mxGeometry relative="1" as="geometry">
            <mxPoint x="130" y="290" as="sourcePoint" />
            <mxPoint x="200" y="360" as="targetPoint" />
          </mxGeometry>
        </mxCell>
        <mxCell id="YkbTa9h2mNcd4hBGybYm-8" value="Data" style="edgeLabel;resizable=0;html=1;;align=center;verticalAlign=middle;" connectable="0" vertex="1" parent="YkbTa9h2mNcd4hBGybYm-7">
          <mxGeometry relative="1" as="geometry" />
        </mxCell>
        <mxCell id="YkbTa9h2mNcd4hBGybYm-9" value="" style="endArrow=classic;html=1;rounded=0;" edge="1" parent="1">
          <mxGeometry relative="1" as="geometry">
            <mxPoint x="260" y="270" as="sourcePoint" />
            <mxPoint x="250" y="353.42999999999995" as="targetPoint" />
          </mxGeometry>
        </mxCell>
        <mxCell id="YkbTa9h2mNcd4hBGybYm-10" value="Data" style="edgeLabel;resizable=0;html=1;;align=center;verticalAlign=middle;" connectable="0" vertex="1" parent="YkbTa9h2mNcd4hBGybYm-9">
          <mxGeometry relative="1" as="geometry" />
        </mxCell>
        <mxCell id="YkbTa9h2mNcd4hBGybYm-12" value="" style="html=1;verticalLabelPosition=bottom;align=center;labelBackgroundColor=#ffffff;verticalAlign=top;strokeWidth=2;strokeColor=#BABABA;shadow=0;dashed=0;shape=mxgraph.ios7.icons.wifi;pointerEvents=1;rotation=90;" vertex="1" parent="1">
          <mxGeometry x="361.13" y="356.75" width="79.25" height="84.5" as="geometry" />
        </mxCell>
        <mxCell id="YkbTa9h2mNcd4hBGybYm-13" value="LoRaWAN" style="text;html=1;align=center;verticalAlign=middle;resizable=0;points=[];autosize=1;strokeColor=none;fillColor=none;" vertex="1" parent="1">
          <mxGeometry x="360.75" y="326.75" width="80" height="30" as="geometry" />
        </mxCell>
        <mxCell id="YkbTa9h2mNcd4hBGybYm-14" value="MQTT Reciever" style="text;html=1;align=center;verticalAlign=middle;resizable=0;points=[];autosize=1;strokeColor=none;fillColor=none;" vertex="1" parent="1">
          <mxGeometry x="486.3" y="330" width="110" height="30" as="geometry" />
        </mxCell>
        <mxCell id="YkbTa9h2mNcd4hBGybYm-16" value="" style="endArrow=classic;html=1;rounded=0;" edge="1" parent="1">
          <mxGeometry relative="1" as="geometry">
            <mxPoint x="540" y="440" as="sourcePoint" />
            <mxPoint x="540" y="510" as="targetPoint" />
          </mxGeometry>
        </mxCell>
        <mxCell id="YkbTa9h2mNcd4hBGybYm-17" value="Populate DB" style="edgeLabel;resizable=0;html=1;;align=center;verticalAlign=middle;" connectable="0" vertex="1" parent="YkbTa9h2mNcd4hBGybYm-16">
          <mxGeometry relative="1" as="geometry" />
        </mxCell>
        <mxCell id="YkbTa9h2mNcd4hBGybYm-18" value="" style="endArrow=classic;html=1;rounded=0;" edge="1" parent="1">
          <mxGeometry relative="1" as="geometry">
            <mxPoint x="490" y="560" as="sourcePoint" />
            <mxPoint x="370" y="560" as="targetPoint" />
          </mxGeometry>
        </mxCell>
        <mxCell id="YkbTa9h2mNcd4hBGybYm-19" value="Read DB" style="edgeLabel;resizable=0;html=1;;align=center;verticalAlign=middle;" connectable="0" vertex="1" parent="YkbTa9h2mNcd4hBGybYm-18">
          <mxGeometry relative="1" as="geometry" />
        </mxCell>
        <mxCell id="YkbTa9h2mNcd4hBGybYm-21" value="" style="image;points=[];aspect=fixed;html=1;align=center;shadow=0;dashed=0;image=img/lib/allied_telesis/computer_and_terminals/Server_Desktop.svg;" vertex="1" parent="1">
          <mxGeometry x="308" y="528" width="42.599999999999994" height="54" as="geometry" />
        </mxCell>
        <mxCell id="YkbTa9h2mNcd4hBGybYm-22" value="FastAPI Server" style="text;html=1;align=center;verticalAlign=middle;resizable=0;points=[];autosize=1;strokeColor=none;fillColor=none;" vertex="1" parent="1">
          <mxGeometry x="279.3" y="590" width="100" height="30" as="geometry" />
        </mxCell>
        <mxCell id="YkbTa9h2mNcd4hBGybYm-24" value="" style="endArrow=classic;html=1;rounded=0;" edge="1" parent="1">
          <mxGeometry relative="1" as="geometry">
            <mxPoint x="290" y="560" as="sourcePoint" />
            <mxPoint x="180" y="560" as="targetPoint" />
          </mxGeometry>
        </mxCell>
        <mxCell id="YkbTa9h2mNcd4hBGybYm-25" value="HTTP" style="edgeLabel;resizable=0;html=1;;align=center;verticalAlign=middle;" connectable="0" vertex="1" parent="YkbTa9h2mNcd4hBGybYm-24">
          <mxGeometry relative="1" as="geometry" />
        </mxCell>
        <mxCell id="YkbTa9h2mNcd4hBGybYm-26" value="Client" style="text;html=1;align=center;verticalAlign=middle;resizable=0;points=[];autosize=1;strokeColor=none;fillColor=none;" vertex="1" parent="1">
          <mxGeometry x="107.80000000000001" y="600" width="50" height="30" as="geometry" />
        </mxCell>
      </root>
    </mxGraphModel>
  </diagram>
</mxfile>
